/* XPM */
static char *ae9ec638c10e4b9aa6f552dcd63ae04eYPtkgUYGUvhSybqS[] = {
/* columns rows colors chars-per-pixel */
"64 64 85 1 ",
"  c #363E41",
". c #3B4345",
"X c #3F474A",
"o c #424A4C",
"O c #464E51",
"+ c #4B5355",
"@ c #4F5857",
"# c #4E5659",
"$ c #525A5D",
"% c #57605F",
"& c #565E61",
"* c #5B6365",
"= c #5F6867",
"- c #5E6669",
"; c #616767",
": c #616669",
"> c #636A6C",
", c #696D6E",
"< c #666E71",
"1 c #696E71",
"2 c #6B7274",
"3 c #6E7679",
"4 c #717676",
"5 c #727679",
"6 c #747A7C",
"7 c #797C7E",
"8 c #77807F",
"9 c #767E81",
"0 c #7A7E81",
"q c #7C8284",
"w c #7E8688",
"e c #828486",
"r c #868887",
"t c #828689",
"y c #858A8D",
"u c #8A8C8D",
"i c #868D91",
"p c #8A8E92",
"a c #8C9195",
"s c #8E9399",
"d c #919496",
"f c #92969B",
"g c #959A9E",
"h c #999C9D",
"j c #9EA09F",
"k c #969BA1",
"l c #9A9EA2",
"z c #9DA1A5",
"x c #9EA3A9",
"c c #A1A5A6",
"v c #A2A6AA",
"b c #A5A9AD",
"n c #A9ACAE",
"m c #A6ABB1",
"M c #AAADB2",
"N c #ADB1B4",
"B c #AEB3B9",
"V c #B1B4B6",
"C c #B2B6B9",
"Z c #B6B9BC",
"A c #B9BBBD",
"S c #BEC0BF",
"D c #B6BBC1",
"F c #BBBEC1",
"G c #BEC1C4",
"H c #BDC2C8",
"J c #C2C3C6",
"K c #C6C8C7",
"L c #C4C6C9",
"P c #C6C9CB",
"I c #CBCCCD",
"U c #CED0CF",
"Y c #CDCED1",
"T c #CED0D2",
"R c #CFD4DA",
"E c #D3D4D4",
"W c #D6D8D7",
"Q c #D5D6D9",
"! c #D7D9DA",
"~ c #DCDCDC",
"^ c #DCDEE1",
"/ c #DDE1E4",
"( c #E1E1E1",
") c #E5E6E8",
"_ c gray92",
/* pixels */
"grCZvvvMljAJlddhheCAccccjjSSjudKcrjVJcjcnncVSdddjujVAVhjMnlMSzuh",
"prNluuppdudlduuudenhuuddurjdjurSjrddjddduuudVduuuuddddududrhMhef",
"eene0ee0ee0udueerene7rrrer77hu6Pdqdereeeee7endrrerdu8ree0e0ecu7u",
"50b00eee0e00f07e7qMq7r878rr7fq2Pr7dr77r7eeq7cu7777du4e880e77ju4u",
"55b555550710f51735m696394477p6>Pe,pe7477368,zw384,ut2788486,lr1y",
"1,v441:1:1:0d1:03-x22<<24,23y3-Gt*t0,:,4<24=j8=35:r0;2,2,,,%hq:e",
",&z:::1:::::p:::2*x<>-<-,,>>y2&Bq$e5;:,:>=<$j3*-1%e7%>;>===%j6$8",
":$l*&&:&::&:e#:&*+z-**-*%;*=w-#H5@04&::%*$=+k8$=;#e5$;=*=%*@f2#6",
"$#i9#&#$###:t$$$*Xx*+&$#&&#*w*XH3.q<#*$$&$&Xk3X%&X92O&#$@%#Xk2.6",
"++0$O$O###+&0OO##Xx$X##O+++$8@.B<.5-X#+++##Xs<X$$X9<X$+#++#.a<.3",
"+Oi$O#O++#+#0O+++Xg@O+++++O#3+.m>.3*X##X++@.w<XX#X3-O#+++++.i- <",
"$#s*#&$$&##&0#$$*Oz*#*$##$#&q&Xm<X6>+$&$$$*Xg<$$&+9<+&$&$%$Os2X3",
"9Os9$9#$*&&&i&**-$x=*******-w-+N3+q2&*****-#k3&**$99&****-*#k3+q",
"$9s$&&9$9&9&i*&9:*x>-=----->w,#N6$q3-->--=>$k9&--*99&<<-=<-*k3$q",
"&9k9*99$-9&9i:9:2:b21>11><2<y2$Cq*wq><<<2>3*xq-<1>99<112222*z6*w",
"99x9&9999999s*9951M552353333p5-Aq-iw3<33328-mw<852iw2555363=xq<w",
"99m999990090s99995vq5w509q66a92Zi2py3q586067zu5909yy68q07906zu3y",
"99D09990tq90f9qqq9bt9t0qqqqqfq3Ga3au6wqq0q9qxp0q00pi8qqwqqq0xa7p",
"90D00i0spytukyyiitMiwuwyyuttgy0Hsqfaquwytywtbftyyefpyyyyytywbsqs",
"0sDissispppplipppyNsuappaaaazatPgthfyaiuapiuMguupikfuapapaaumhyg",
"ffNfssskhdfdjdhdfaVgafsffffscfiYzajgafddsssaVldgfdhhsfdgfsfaNzah",
"zhChkkkkhhlhvdjhjgVjghhhhhhhvgdYcfzzgjjglhhgVcgglkchhjgjjjjdNbfz",
"xzZczclvcjccnhnjxjZvjjxzcjcznlhEnjxczcjjczjzAcjcccbczcjvxzcjCnhv",
"ncAbvbbvvcnvMjMcnzSnvcbbccccVcjQNcbbccbbnccvAncbvvnbvbzbncbjSNzb",
"nNSNMnnnnnMVnnnnnNSNcnnnNNbnVVj~bNnVnnVVnnnnSVnnnNNnNnnNnnnnGnnn",
"VCSCMVnVVVVVVMVVnVSSVVVVnVZCnnc)SNnVAnnnVVVnJVNNVVVVVVnVVVVnGSNN",
"AAKSAACAAVAAVAAAZCGSZSAZSSAAnnjEcnnNAASSCCACKSZCCSAVZZZASZZNKSSC",
"SGKSAJASSSSSASSSGSKSASZVAVVVjnNEnCnVnVVnSAJAISSSSSASSSAJSSGSISSS",
"JJUJJKSKKKJJSJKJKGKKGJAAcnVVdhnUVdrnAnVVJSKJUJKSSKJSJJJJJJKGUHJG",
"IKUKKIKIKKIKJKIKKJIUPIKKIEUUVSK(EKVKUKIUKKIJUJIKKKJJIIKIIKIKTPIJ",
"UIEIIUIUIIUIJIEITKTUIUUEIUKIKUU~KUKKKKEIUKEIEIEIIUKKUUUUIIEKUUUK",
"EUWUUEUEUEEIIUEUWUWUUEUEK~UEUUK(WUKUWEEIEKEUWIEUEUIKUEUEUEWUWUWU",
"~E~EEE~EEEQEJQEEQEQQQEEEQQQ!IQQ(WWIUWEWWEEWWEWWEWWIU~EEWE~E~EE~I",
"~E~~~~~~~~~~K~~~QQ~Q~Q~~Q~~~I~E(W~UE~W~WWWWWWWW~W~UU~~~~~~E~~~~U",
"~~~(~~~(~~~(I(~(~~~~~~~~~~~~Y~~_(~EW(~~~~~~~~~~~~(EW(~~~~~~(~~(E",
"(~(~(((~(~((E(~((((~(~~(~(~~E(~_((E~(~(~(~(((((~((EW((((~(~((~(E",
"~((~~~((((((Y(((~((~((~(~(~(E(~_((U~(~~~(~((~(((((WW((((~~~(~~(W",
"~~~~~~~~~~~~I(~~~~~~~~~~~~~~U~~_~~EW(~~~~~~~~~~~~(UE(~~~~~~~~~~E",
"~~~~~~~~~~~~I~~~~~~~~~~~~~~QI~~_~~U~~~~~~~!~~~~~~~UE~W~~~~~~~~(E",
"E~~~~E~E~~~~L~QQE~~~W~WQ~~~EI~~_~~UW~W~~~!~~!!!!W~UE~~W~~~E~W~~U",
"~EQEQ~EEEQEEIQQQE~~EEQQQEWEEKWQ_~~UE!QQQQQEQ!!QQQQIEQEQQEWE~~~EI",
"~EEEEQEEEEEQLQQEEE~EEEEEEQEEIEU_WWIEQEQEEWEE!WEEEQIEQEEEEEEEE~EI",
"UEEEYEEEEEIELEYEYE~EUEEEYRYRKEU)EEIUQTETTEUEWTTTYQLYQYEYUEEUEEEI",
"UUEUYYEIYYIEJEYYIEYEYUUUYRYYKUU(EEKIEITTYEYYRTYYYYLIEIYYUUUUEEIK",
"IYYYIIIIIYLYJYIIIRRYIYIIYYYYFYP^IUJPYPTPIYIITTIYIYJIYIYIIYIYYEIK",
"LIYILIIILILYFIPLLPPIILIPPPHYFYP^IIJJYLPKPPPPYPPILIJLYLILILIIIIIJ",
"LIILJJJLJLJIFLLLHPILHHLHLLLPFYJQKIFJPHLLJPLLPPHKJLAJIJLLJLLLLIJJ",
"JLILJJJJGJJLDLJJHHLHJJJHHHHHDLFRJJDFLFHHJLHHHPHHJJAJLJJJJJJJLLJA",
"FAIDDAJADFAADDFFGAIDFFJDFFAFDJD^JAAFFFFFGAGALJJFJFAFFFFAJDJDYJFD",
"AALADAFADDAAAAAFADLDFDFDADFFCJVQFDAAAAFAADFDLDFAADDDDDFDAADALDDA",
"ACLCADDCACACCCDCDCJVDCACZCDFCDBRDDCACDACDCDVLDACAACAAACDDCACLACC",
"BBJBCMABCCBBBBBDDBJDVVDVCVCCNDMQZMBCBBCCCVDMJDBBMVBVBCCCBMCMJCCM",
"MMJBBMBMNNNNNBMBBMJVBMDBMNNBNCmQCMBCMNVVNVVMHBMBMMMMBMMMBBBMHBMB",
"MMFMMMMMMMMMMMMMMMFMMmmMMMMMMBvQVMMMMMMMMMMMHBMMMMMMMMMMMMMvFBMM",
"vvDMvvMvvvMMMMvvvvDMMvmvvbbMbMzQNMMMMvMvbMbvDDvmMMvMMvvMvMMvDMvM",
"vvAvvvMvvvvvvvvvvvDMvvmmvbvbbmlRMvvvvvvvvvvvDmxxvvvvvvvvvvvlAMvv",
"llBvvlkvvllvvvvkxxDllmkxxkxxmxkRMkvmkxxxxkxkDmkvvlmmkkvxllvvBvvv",
"kkDvklkvllllvvllkkDxkxkxlkxkvksRvfvvkllkxkxkBvkxxkxvkkxklllkMvkv",
"kkBkkkkkllkkllfkksDxkkklkkxkvksRvfvvskkfkkksmxkkkflxkkkskkksBvsl",
"ffMfsffsfkfflfsfssmksfffskssxksRlsllsffsssssmxsssfkksfksskspBlpl",
"fsMfpssssfpslfsfssDsisssssssxsiHksksssssssssmksssskfsissssspBkpk",
"ksBlfffsssfklkffksmsssksfsfsxsiDkskkfsskksssBksssfkkssskssssBksk",
"vfDMvlvvllmMllkkkkDmxkxkxkmmmssDxsxmvxkxxxkvDxkkkkxmmxkxxxxvDkkl",
"vkDDMMMMMvDHvlvvmsDDDxvDmvDDmxxRDkvDDDvmBmmDHvxmmkvBDBmmBmmBHvvv"
};
