/* XPM */
static char *cb3f9572a93845f4efa8821a66f794115vNa1m4MkUa6ETLe[] = {
/* columns rows colors chars-per-pixel */
"64 64 70 1 ",
"  c #060101",
". c #080303",
"X c #090404",
"o c #0B0606",
"O c #0F0B0B",
"+ c #100C0C",
"@ c #110D0D",
"# c #161212",
"$ c #191515",
"% c #262323",
"& c #312F2F",
"* c #333232",
"= c #363535",
"- c #3F3E3E",
"; c #403F3F",
": c gray26",
"> c gray28",
", c gray29",
"< c #4C4C4C",
"1 c #4E4E4E",
"2 c gray32",
"3 c #535353",
"4 c #555555",
"5 c #5B5B5B",
"6 c gray37",
"7 c #626262",
"8 c #646464",
"9 c gray42",
"0 c #6C6C6C",
"q c #747474",
"w c #797979",
"e c gray52",
"r c gray55",
"t c gray56",
"y c #909090",
"u c #939393",
"i c gray59",
"p c #979797",
"a c #9A9A9A",
"s c #9B9B9B",
"d c #9D9D9D",
"f c #9F9F9F",
"g c #A0A0A0",
"h c #A4A4A4",
"j c gray66",
"k c gray67",
"l c #ACACAC",
"z c #AFAFAF",
"x c gray69",
"c c #B4B4B4",
"v c #B7B7B7",
"b c gray72",
"n c #BBBBBB",
"m c #BCBCBC",
"M c gray75",
"N c #C1C1C1",
"B c gray77",
"V c #C5C5C5",
"C c #CBCBCB",
"Z c #CDCDCD",
"A c gainsboro",
"S c #DDDDDD",
"D c gray88",
"F c #E1E1E1",
"G c #E6E6E6",
"H c #E9E9E9",
"J c #ECECEC",
"K c #F3F3F3",
"L c #FBFBFB",
"P c #FEFEFE",
/* pixels */
"aghhgiyyyiyiyiyytttttttrttttrtttrtyityyiyiiiyytttiiiiaaijxlgihjj",
"gghdaiyyyyyiyiiytttttttrttttttrtttyityyiyyiyyytttyiyiadahljhagll",
"djhdiyytiiiyiiyyttrtttrttttttrtrtiyyyyiiiyyyiyytyyiyiadiajjxljhh",
"hhggdiyiiiiiyiyirtttrttttttrtrttyyyyyyiyytiiyyyyyyyiyaaadhlblbgg",
"dhhggyyiiiaiiiyyrttttrrtttttttrtyyiyyyiiyyyyyyyttyiiidaaagjccchh",
"ghggaiyiiiiyiiiyttrtttttttttttttyyyyyiiiiyityyyyiiiiiaaayhhxxbjg",
"ghhgdiiiiiiiiiittrttttttyyytttrriyyyyiyiyiiiyyyyyiiyyddaaghcxchg",
"ghghayiiiiiiiiyttrtrttttyyttrtttyyyyyyiiiyyyyiiyiiiyiddiidgxblld",
"ghggiyiiiiiiaiyttrtttrrttttttrrtyyiyyiiyyyyyyyyyiiiiaaaiadhNcxhd",
"gggaiitiiaiiiitttrtrtttttttrttttyiytiyyiyiiytiiiaiiiaaaiighbNcjd",
"dgddiiiaiiiiayttttrtrtttttttrttryyyytyyyyiyyyyyiiiiidadiagjNbblg",
"dddaiiiiiaaiiittrtttttttttttrttryyyytiiiyyiyyyyiiaiiiaaiigjbNbhd",
"aadiaiiiiiiiiittttrttttttyttttttyyyyyiiiiyyyyyiiiiiydaaiidhcbcld",
"iiadaiatiiiiiyttrtttttttttttttrtyytyyiiyyiiyyyyiiyiiaadiydjmbcjd",
"aaaiiiiaiiiiittttttttttttttJSSSAKe94>yiyiyyyiyiiaiyiiaiiiglccxji",
"iiaiiiiiiaaiitttttttttttJGdj>>>>,>>>>>>>iyiyyiyiiyiyiiiiiajcbcji",
"iaiiiiiiaaaiyyttrttttthJG>>>>>>>>,>,>>>>>>ytitiyyiiiiiiiiacbbNli",
"yyaaiaiiiiiiiyttrttttCK3>>>tttt>>yyt>>>>>>>>tiiiiiiyyiiiagxmVVcy",
"yyiyiaiiiyiiytttttttSJ>>>tttttt>>yyayii>>>>>>yiiayiiaaiddgbmNNhy",
"yiiiiaiyaiyiyttttrrAZ>>>ttttttr>,yyyyiti>>m>>,iiiiyiaaaggjcNNCjy",
"iyiiiiiyiyiyttttttF>>>tttyttrtt>>yyiatyiytm,>>iiaiiiaaadjxcmmNxy",
"yyiiiyiiiiyytttttF8>>>>tttttttr>>yyyyyyaiG>t>>>iiiyaaaigjlbbCVhy",
"yyaiiiiiiyiyttttLx>>t>>>tttttrt>,yyayyyyL,yi>>>>iiiidaiajcbmbbly",
"yiyyaiayiiyyyyytL>>ttt>>>ttrttt>>yityiiS51yy1>>>iiiaadaajxcbVbct",
"iyiaidiyiyiyyyyPh>ttttt>>>trrtt>>yyaiiS,>iyyi>>>>aiadaiallxmVNby",
"yiiiaiaiiyyyyyyP>1tttttt>>>tttr>>tytyP>>iiyiii>>>aaiaaihxclNVNlt",
"iyyaaaaiiiiyyytP>tttttttt>>>ttt>>yyiS>tyiyyiyi>>>iidiaialcjmVmxy",
"yiyaiaiyyiyyyyyL>ttttttttt>>>tt,>yyFw,iyiiyyyi>>>@aaaaialxxbNNcy",
"yyiadiityyyiyyPt>tttttttttt>>>t>>tS5>iiyiiyiyii>>OiaaaiahjxbmCNy",
"tiiyiaittiyiiyL,,ttttrtttttt>>,SSS>,yiayyiyaaia>>@iyiaadjxxmNNby",
"tyiaiiyttyyyyyP>,ttttttttyytt>Sy,; ytityittiiii>:OiaaaaglcbVNCci",
"tyiiaiittyiyiyc>,>>>>>>>>>>>>S5>>- >>>>1>>>>>>>>>@yaaaihcccNmmlg",
"tyiiaiytyyiyyyL>,31,>,,>,>>>>t>>>> >>>>>>>>>>>,>>OiiaiihlcmVmmcg",
"tyiaiyittyyyyyH>,ttttrttttyttS>:> Xyyiiyiiytyyy>>@iaaaahlxcbNmcg",
"ttiiaiittyiyyyL>,ttttttrttytSt-. O>>yyyyyyytyti>> iiaiahlcbmbVcl",
"ttiiaiiytyyiyyq>>6tttrtrttyNi>t>>y>>,iyiiiityaa>>OaaaydgccNNmVNl",
"ttiiiiittttyyyy,>5ttrtttyyPC>rt>,yy,,>yiiyytya>>;@iiiiddxcbmNNmh",
"ttiiiiyyttyyyiy,>3ttttrtyP,>ttt>,yyy>>>iayityy>> aaaiidgxbVVVxxd",
"yyiiiiiytttyyyy,>>etttttP03tttt,>yyyy>>>iyytii>>@iaaaiahlmmZVlda",
"tyiiaiayttyyyyyy>>>tttttS>ytttt>,yyyyy>>,yittq,X$iaaigdgjcVmmdai",
"tyaiiiiytrtyyyyy>>>tttt0>yttttt>>yyyyiy,>>yyt>>XiiaaiadjhlVVcjha",
"tiiaiiiytrttiyyyt>>>trPS>tttttt>>tyyyyii>>,3>>$*iiiaadhjljbcNjha",
"tyaiiaayttttyiyyt>>>>t>>ttttttt,,yyyyiiii>>>>%XiiiaagdgjjcNVmxai",
"tyaiiiiirtttyyyytt>>>tS>ttttttt>>yyiyyyyi,>>>XiiiadhgigjxbmVbcdy",
"yyaiyiaytrttyiyyttt>>>>>rtttttt>>yyyyyyi6>>% yiiyigdhaghlcNNcjga",
"yyaiiiiitrttyyyytttr>>>>>>tyrtt>,yyyiy4>>>#Oyiaiaajjgggjjcmmblgd",
"yiyaiiiitttyyyyittttt>>>>>>>3tt<>tt7,>>>> =ttiiiidgggddhhxbNcxhg",
"yiaiiyittttyyiyyyttrttt>>>>>>>>>>>>>>>>=O#itttaaahhhddgghclcbxld",
"iiiiiiiytttttyyyyytttttrt>>>>>>>>>>*.@#&aiiytytidghhdggghxmmbjgd",
"yiiyyiiytttrttyyytttrttrtttt>>>>>@OXyyyiiiyytyiidghdadadhmcZmhjd",
"yiiyyiayttttyyyyyttttttttytttttrtyyyyyyityyytyiiggjdhddghbVNxccj",
"yyyiiiaitrrtyyyiyttttrrtttttttttttyyyyyyayyyyyiagjlgghddlcbmbxbl",
"yyyyiiiyrttttyyyyytttrrttttttttttttttyyytyyyyiiajllxghgallmNNcmx",
"iyiyyyiyttrrtyyyytttttttttttttrttttttyyyyyyitiyagljjgdghcxVbNxbx",
"yiyyyiiytrtttyyyttrtrttrrrttttttrtttyyyytayytyydhljjgddxcbVZbmxh",
"iiiyaiiytttttyyyttttrttrtttttttrttttyyyyyyyyyyiagjjghhhbcjcmmxcl",
"yyiyiiiirttrtttttyyttttttrtttttrtrttttttiyyiiyidhjlhhhxbmcmcbbcl",
"iiiyiiiirttrttyyiyttttrtttttttttttrtttytyyyyyaaahjlgagjxlbmmmcml",
"iiitiaiytttttyyyyytttrttrtttttrtrrtttyyyyyyyiaaajljdddxxxjVcZcxg",
"yiittytttrrttyyyyyyttttrrttttttttttrttyyyiyyiaayxljdaccljlNZNbbc",
"yyyyrttttttrtrttyyyytrrttttttttttttrttttyyyyadaigjjaglclgjNNmmVj",
"iiiyttrtrrttttyyyyyytttttrrtttttrrttttttyyyiaaaigjgggjxgiaxcbcxd",
"iyyytrtrttrtttyyyyttrttrtrtttttrttrtttttyyyyiaaddghdgddtyiclxdhy",
"iiittrtttrttttyytyytrttrtttrtttttrttrtttyyytyiidddddaayttdgjxdyt"
};
