/* XPM */
static char *c242c5962923421ab7256a559f09c4c4rbpmhFJn53iPQuOd[] = {
/* columns rows colors chars-per-pixel */
"64 64 2 1 ",
"  c None",
". c black",
/* pixels */
"                                                                ",
"                                                                ",
"                                                                ",
"                                                                ",
"                                                                ",
"                                                                ",
"                                                                ",
"                                                                ",
"                            ..................                  ",
"                          ......................                ",
"                         ........................               ",
"                        ..........................              ",
"                        ..........................              ",
"                        .....                .....              ",
"                        ....                  ....              ",
"             ...        ....                  ....              ",
"            ...         ....                  ....              ",
"           ...          ....                  ....              ",
"          .. ..         ....                  ....              ",
"          .. ..         ....                  ....              ",
"          ..  .         ....                  ....              ",
"          ... .         ....                  ....              ",
"          ..  .         ....                  ....              ",
"           ....         ....                  ....              ",
"           ....         ..........................              ",
"           ..      ...............................              ",
"           ..     ................................              ",
"           ..     ..    ..........................              ",
"           ..     .     ..........................              ",
"           ..    ..     ..........................              ",
"           ..    ..     ..........................              ",
"           ..    ..     ...................   ....              ",
"           ..    ..     ...................   ....              ",
"           ..    ..     ...................   ....              ",
"           ..    ..     ..........................              ",
"           ..    ..     ...................   ....              ",
"           ..    ..     ...................   ....              ",
"           ..    ..     ...................   ....              ",
"           ..    ..     ..........................              ",
"           ..    ..     ..........................              ",
"           ..    ..     ...................   ....              ",
"           ..    ..     ...................   ....              ",
"           ..    ..     ...................   ....              ",
"           ..    ..     ..........................              ",
"           ..    ..     ..........................              ",
"            ......      ..........................              ",
"             ....       ..........................              ",
"                        ..........................              ",
"                        ..........................              ",
"                                                                ",
"                    ..................................          ",
"                    ..................................          ",
"                    ..................................          ",
"                    ..................................          ",
"                    ..................................          ",
"                    ..................................          ",
"                                                                ",
"                                                                ",
"                                                                ",
"                                                                ",
"                                                                ",
"                                                                ",
"                                                                ",
"                                                                "
};
