/* XPM */
static char *_c264b7dd6d74136a786d3148aa8b2cecRRrdTYM4ieq3LVS[] = {
/* columns rows colors chars-per-pixel */
"64 64 2 1 ",
"  c black",
". c white",
/* pixels */
"        ........        ........        ........        ........",
"        ........        ........        ........        ........",
"        ........        ........        ........        ........",
"        ........        ........        ........        ........",
"        ........        ........        ........        ........",
"        ........        ........        ........        ........",
"        ........        ........        ........        ........",
"        ........        ........        ........        ........",
"........        ........        ........        ........        ",
"........        ........        ........        ........        ",
"........        ........        ........        ........        ",
"........        ........        ........        ........        ",
"........        ........        ........        ........        ",
"........        ........        ........        ........        ",
"........        ........        ........        ........        ",
"........        ........        ........        ........        ",
"        ........        ........        ........        ........",
"        ........        ........        ........        ........",
"        ........        ........        ........        ........",
"        ........        ........        ........        ........",
"        ........        ........        ........        ........",
"        ........        ........        ........        ........",
"        ........        ........        ........        ........",
"        ........        ........        ........        ........",
"........        ........        ........        ........        ",
"........        ........        ........        ........        ",
"........        ........        ........        ........        ",
"........        ........        ........        ........        ",
"........        ........        ........        ........        ",
"........        ........        ........        ........        ",
"........        ........        ........        ........        ",
"........        ........        ........        ........        ",
"        ........        ........        ........        ........",
"        ........        ........        ........        ........",
"        ........        ........        ........        ........",
"        ........        ........        ........        ........",
"        ........        ........        ........        ........",
"        ........        ........        ........        ........",
"        ........        ........        ........        ........",
"        ........        ........        ........        ........",
"........        ........        ........        ........        ",
"........        ........        ........        ........        ",
"........        ........        ........        ........        ",
"........        ........        ........        ........        ",
"........        ........        ........        ........        ",
"........        ........        ........        ........        ",
"........        ........        ........        ........        ",
"........        ........        ........        ........        ",
"        ........        ........        ........        ........",
"        ........        ........        ........        ........",
"        ........        ........        ........        ........",
"        ........        ........        ........        ........",
"        ........        ........        ........        ........",
"        ........        ........        ........        ........",
"        ........        ........        ........        ........",
"        ........        ........        ........        ........",
"........        ........        ........        ........        ",
"........        ........        ........        ........        ",
"........        ........        ........        ........        ",
"........        ........        ........        ........        ",
"........        ........        ........        ........        ",
"........        ........        ........        ........        ",
"........        ........        ........        ........        ",
"........        ........        ........        ........        "
};
