/* XPM */
static char *e0bd40dcfbe54e44e56c844bade0acdbzBt9eqiCopukimCe[] = {
/* columns rows colors chars-per-pixel */
"64 64 67 1 ",
"  c #010101",
". c #0C0C0C",
"X c #121212",
"o c #1C1C1C",
"O c #262626",
"+ c #272728",
"@ c #2B2B2B",
"# c #333333",
"$ c #3C3C3C",
"% c #424242",
"& c #4D4D4D",
"* c #525252",
"= c #5D5D5D",
"- c #646464",
"; c #6B6B6B",
": c #737373",
"> c #7C7C7C",
", c #828282",
"< c #8C8D8C",
"1 c #949494",
"2 c #989898",
"3 c #9A9A9A",
"4 c #9B9B9B",
"5 c #9B9B9C",
"6 c #9C9B9C",
"7 c #9C9C9C",
"8 c #9D9D9D",
"9 c #9F9F9F",
"0 c #A0A0A0",
"q c #A4A4A4",
"w c #A7A7A7",
"e c #AAAAAA",
"r c gray68",
"t c #B2B2B2",
"y c #B7B7B7",
"u c gray73",
"i c #BBBBBB",
"p c #BCBBBC",
"a c gray74",
"s c gray75",
"d c #C0C0C0",
"f c gray76",
"g c gray77",
"h c #C5C5C5",
"j c #CAC9CA",
"k c #CBCBCB",
"l c gray80",
"z c gray82",
"x c gray83",
"c c #D5D5D5",
"v c gray85",
"b c gray86",
"n c gray87",
"m c #DFDFDF",
"M c gray88",
"N c #E1E1E1",
"B c #E4E4E4",
"V c gray92",
"C c #ECECEC",
"Z c gray93",
"A c #EFEFEF",
"S c #F2F2F2",
"D c gray97",
"F c gray98",
"G c #FBFBFB",
"H c gray99",
"J c white",
/* pixels */
"      1331# .      . #133<. .      X &818, .       X -810: X    ",
"   .  <831# .      . #133<         X &638, .       X -818: X    ",
"      <331# .      . #133<. .      X &338, .       X -818: X    ",
". .. .1833# X .  . X #338<. ..   . X *838, X.  . . X -030: X  . ",
"     X<<<<# .        $<<1,X        . &1<1>         . -1<1; .    ",
"    . qbNu         .  unNq .       X %fnb1 X       o -lnc> X    ",
"<<<<,qFJJJy,1<<<<<<<,yJJJFq,<<<<<<<<,jJJJS1<<<<<<<<<,bJJJB<<<<<<",
"33381nJJJJC1333338881CJFJJn1883633330DJJFJj183388381tJJFJJu18383",
"3333<NJJFJC1333333331CJJJJN<333333318FJJFJz<33333331tJFJJJf<8333",
"13131uJJJJj<33113113<lJJJJu<33131313<bJJJJe1331111311VJJJS813131",
"#$#$$oaCSj$#$#$#$##$#%kSCuo$$#$#$##%o-bSCe $$##$$##% >BDB1 $$##$",
"      ,33<+          O<13,           %133:           =113-      ",
"...X X1333# o......o $1381X XX.....o *838, XX.X....o -018: o...X",
"   . .<831# .      . #133<         . &338,         X -838: .    ",
"      <311# .      . #133<. .      X &838, .       X -010: X    ",
"   .  <831# .      . #133<.        X &318, .       X -818: X    ",
"     .<831# .      . #135<. .      X &338> .       X -818: X    ",
"   .  <331# .      . #133<         X &818, .       X -838: .    ",
"      <831# .      . #133<. .      . &838, .       X -818: X    ",
".... .1833# X......X #1331. X......o *810, X.......o -810: o....",
"      ,11<+          @<11,           &<11>           =111;      ",
"OOO+@ yVVf#o@OOOO+O+o#fVVt O+OOOOOO@ *zCV8 #+OOOOOO# :bVN, #OOOO",
"1111<tJJJJf<11111111<hJJJJy<11111111<zJJJF0<11111111<BJJJS111111",
"3338<NJFJJC1333333331CJJJJn<833333330DJJJJz<33133331tJJJJJa<3333",
"3338<NJFJJC1833133333CJJFJn1833133330FJJFJl133333181tJJJFJu13133",
"1<11<rJJJJf,1<111<11,aJJJJt,1111<111,cJJJD0<11111111<nJJJC111111",
"ooooO rBBaOXOooooooOXOfBBt OoooooooO &lBN3 +ooooooo+ ;cBn, +oooo",
"     .,11<#          #<11,           &111>           =111;      ",
"...X .1333# X......X #1381X X..... o *830, X...... o -018: o... ",
"      <831# .      . #133<         . &818> .       X -838: .    ",
"   .  1331# .      . #133<  .      X *818, .       X -838: X    ",
"      <811# .      . #133<.        X &818, .       X -818: X    ",
"   . .<331# .      . #138<.        X &618, .       X -838: X    ",
"   .  <811# .      . #138<  .      X &838, .       X -818: X    ",
"      <831# .      . #136<         X &338, .       X -838: X    ",
"X..X.X<333# o.X.X..o #1331X.XXX..X.o *818, XX.X..X.o -018: o..X.",
"      ,33<O          O<33,           %123:           =133-      ",
"$%%$%+fSSz&#%$$%$%$%#&lSSf@$%$$%$%$%+;nSSr.%$$%$%$%%X>BSC3 %$%%$",
"13331aJJJJl<31131333<zJJJJf<33333333<nJJJJr1831333333VJJJD813331",
"3313<NJFJJS1333133311CJJJJN<331131310FJJFJz<8131133<yJJFFJf<3313",
"38881nJJFJC3883338331CJFFJn1833383330FJJFJl188833383rJJJJJu18333",
"<<<<,8DJJJt><<<<<<<<,tJJJF0,<<<<<<<<>gJJJC1,<<<<<<<<,cJJJN,<<<<<",
"      0bnt            tnn0           $fnc<           =jnz: .    ",
"     o,11<# .      . #1<<<X        X &1<1> .       X -1<1; X    ",
".  .  1881# X .    X #1881. ..     X *838, X .     o -030: X  . ",
"   .  <831# .      . #133<         X &818,         X -810: .    ",
"      <811# .      . #138<. .      X &538, .       X -018: X    ",
"   .  <831# .      . #138<         X &618, .       X -818: X    ",
"      1331# .      . #138<. .      . &818,         X -810: X    ",
"   .  <831# .      . #133<         X &818, .       X -818: .    ",
"      <831# .      . #133<. .      X &538, .       X -818: X    ",
"XXXX.X1313$ o.XXXX.o $1131o X.XXXXXo *318, oXX.XXXXo ;818> oX.XX",
"      ,00<.          X<00,           $1q0:           *8q8-      ",
"****&&lFJb-&********&=nFJl&&*****&**%>VFFa$*******&=#1CFFe#*****",
"33381fJJJJb1883338881cJJJJh1883333881BJJJJy1883338838SJJJFe18333",
"1313<NJJJJS1113111311SJJJJN<311313110FJJFJz<5133113<yJJJJJf<3131",
"88881bJJFJV1088888881CJJFJb1088888888DJFJJj188888883eJJJJJu18888",
",>,,>1SJJF0:,,,,,,,,>0FJJC1>,>,,,,,,:yJJJB,>,,>,,,,,:jJJJc>,,,,,",
"      1llq            qlj1           #yzj,           *azf;      ",
"...X o<<<1$ X......X $1<1<o X......o *1<1> XX......o -1<1: X....",
"   .  <831# .      . #378<  .      X &838, .       X -038: X    ",
"     .1331# .      . #133<.        X &338, .       X -818: .    ",
"      <331# .      . #133<  .      X &618, .       X -018: X    ",
"   .  <331# .      . #133<.        X &338, .       X -818: X    "
};
