/* XPM */
static char *result[] = {
/* columns rows colors chars-per-pixel */
"64 64 41 1 ",
"  c #050000",
". c #060100",
"X c #070100",
"o c #070200",
"O c #080201",
"+ c #080301",
"@ c #090301",
"# c #090401",
"$ c #0A0501",
"% c #0B0501",
"& c #0C0601",
"* c #0C0701",
"= c #0D0702",
"- c #0E0802",
"; c #0F0902",
": c #110B02",
"> c #120C03",
", c #130C03",
"< c #1A1304",
"1 c #1C1505",
"2 c #1D1605",
"3 c #1E1705",
"4 c #201906",
"5 c #251E07",
"6 c #F7E031",
"7 c #F8E031",
"8 c #F9E232",
"9 c #FBE332",
"0 c #FBE432",
"q c #FDE532",
"w c #FDE533",
"e c #FDE633",
"r c #FEE632",
"t c #FFE632",
"y c #FEE732",
"u c #FFE732",
"i c #FEE633",
"p c #FFE633",
"a c #FEE733",
"s c #FFE733",
"d c #FFE833",
/* pixels */
"ssssssssssssssss                 sssssssssssssss                ",
"sssssssssssssts                 stsssssssssssssX               s",
"ssssssssssssss-                sssssssssssssus.               ss",
"sssssssssssus:                sssssssssssssss                sss",
"ssssssssssss<                spsssssssssssss                ssss",
"sssssssssts3                sssssssssssssss                sssss",
"ssssssssss                 sssssssssssssssX               ssssss",
"sssssssss                 susssssssssssus                sssssss",
"ssssssss4                stsssssssssssss                ssssssss",
"sssssuso                spsssssssssssdsX               sssssssss",
"ssssss=                sssssssssssssss.               ssssssssss",
"ssssso               2susssssssssssps                sssssssssss",
"ssssX               <sssssssssssssps                ssssssssssss",
"sps=               &sssssssssssssss                pssssssssssss",
"ps                +sssssssssssssys.               ssssssssssssss",
"s4                sssssssssssssss                sssssssssssssss",
"                 sssssssssssssss               *ssssssssssssssss",
"                sssssssssssssss.               sssssssssssssssi ",
"               sssssssssssssss.               isssssssssssssss  ",
"              susssssssssssts                ssssssssssssssss   ",
"             sssssssssssssss                ssssssssssssssss    ",
"            sssssssssssssss                isssssssssssssss     ",
"           9ssssssssssssas.               sssssssssssssssq      ",
"          6ssssssssssssss                issssssssssssssw       ",
"         issssssssssssps                ssssssssssssssss        ",
"        sssssssssssssis                ssssssssssssssss         ",
"       sasssssssssssps.               issssssssssssssp          ",
"      spsssssssssssas                ssssssssssssssss >         ",
"     spsssssssssssss                issssssssssssssi %          ",
"    sssssssssssssss                ssssssssssssssss #           ",
"   sssssssssssssss.               ssssssssssssssss %            ",
"  spsssssssssssss                isssssssssssssss %             ",
" sssssssssssssts                sssssssssssssssd +              ",
"sssssssssssssss                issssssssssssssp O               ",
"ssssssssssssss                ssssssssssssssss O               s",
"sssssssssssrs                ssssssssssssssss                 ss",
"ssssssssssss                isssssssssssssss                 sss",
"sssssssssss                ssssssssssssssss                 ssss",
"ssssssssss                ssssssssssssssss                 sssss",
"sssssssss                isssssssssssssss                 ssssss",
"ssssssss                sssssssssssssssi                 ssassss",
"sssssps                ssssssssssssssss                 ssssssss",
"ssssss1               isssssssssssssss                 sssssssss",
"sssas                ssssssssssssssss                 ssssssssss",
"ssts.               isssssssssssssss                 sssssssssss",
"sss                isssssssssssssss                 ssssssss8sss",
"ps                ssssssssssssssss                 sssssesssssss",
"s                ssssssssssssssss                 ssssssssssssss",
"                ssssssssssssssss                 sssssssssssssss",
"               ssssssssssssssss                 sssssssssss9sss ",
"              ssssssssssssssss                 sssssssssssssss  ",
"             psssssssssssssss                 ssssssssssssss0   ",
"            isssssssssssssss                 ssissssssssssss    ",
"           7pssssssssssssss                 sssssssssssssss     ",
"          wussssssssssssss                 sssssssssssssss      ",
"         ssssssssssssssss                 sssssssssssssss       ",
"        ssssssssssssssss                 sssssssssssisss        ",
"       sdssssssssssssss                 sssssssssssssss         ",
"      ssssssssssssssss                 sssssssssssssss          ",
"     sussssssssssssss                 sssssssssssssss           ",
"    ssssssssssssssss                 sssssssssssssss            ",
"   spssssssssssssss                 sssssssssssssss             ",
"  sssiisssssssssss                .sssssssssessissX             ",
" ssssssssssssssss                .sssi8ssssssssss;              "
};
