/* XPM */
static char *result[] = {
/* columns rows colors chars-per-pixel */
"64 64 8 1 ",
"  c #9F9F9F",
". c #A0A0A0",
"X c gray98",
"o c #FBFBFB",
"O c gray99",
"+ c #FDFDFD",
"@ c #FEFEFE",
"# c white",
/* pixels */
"                                                                ",
"                                                                ",
"                                                                ",
"                                                                ",
"                                                                ",
"                                                                ",
"                                                                ",
"                                                                ",
"                                                                ",
"                                                                ",
"                                                                ",
"                           @@@@++++O+o###################       ",
"                          ##############################        ",
"                         ##############################         ",
"                        ##############################          ",
"                       ############################@#           ",
"                     .+#############################            ",
"                     ##############################             ",
"                    @#############################              ",
"                   o#############################               ",
"                  +#############################                ",
"                 +############################X                 ",
"               .##############################                  ",
"               ##############################                   ",
"              ##############################                    ",
"             ##############################                     ",
"            ##############################                      ",
"           @#############################                       ",
"         .##############################                        ",
"         ##############################                         ",
"        ##############################                          ",
"       ##############################                           ",
"      O###########################o+                            ",
"      O###########################O#                            ",
"       ##############################                           ",
"        ##############################                          ",
"         ##############################                         ",
"         .##############################                        ",
"           @#############################                       ",
"            ##############################                      ",
"             ##############################                     ",
"              ##############################                    ",
"               ##############################                   ",
"               .##############################                  ",
"                 +############################X                 ",
"                  +#############################                ",
"                   o#############################               ",
"                    @#############################              ",
"                     ##############################             ",
"                     .+#############################            ",
"                       ############################@#           ",
"                        ##############################          ",
"                         ##############################         ",
".                         ##############################        ",
"                           @@@@++++O+o###################       ",
"                                                                ",
"                                                                ",
"                                                                ",
"                                                                ",
"                                                                ",
"                                                                ",
"                                                                ",
"                                                                ",
"                                                                "
};
