/* XPM */
static char *_16f03ccd2034a189a2f2aa32b5a8b30kxpnsPpDSS4UFj1I[] = {
/* columns rows colors chars-per-pixel */
"64 64 4 1 ",
"  c #178E52",
". c #23A877",
"X c #38C89E",
"o c #3FF2CA",
/* pixels */
"...XooX ..............Xoo................XoXXXX  ....XX ........",
"..oX X. ..............oo. ..XXoX........XXXX.   .....X. ........",
"oX.  X. ............XXoooXXoX...XX....XoXX..  .......X .........",
"X  ..o .............oX.. . .......X.XXoo... ........XX ........X",
" ....X ............XXX. .......XoXoXoooX.  .........Xo ......XX.",
".....X ...........XoX..........XXX....X.  ..........XX ....XoX  ",
".....o ..........XX.. ........X.X....X.  ...........Xo ..XXX.  .",
"....XX ...XoX..ooo. .........X......X. .............XXXoXo.  ...",
"....oo..XXX.XoXoooo ........Xo.....X. ..............oooXX.  ....",
"....ooXX..     ..oo........XX......X .............XXooX.   .....",
"...XooX.  .......o........Xo......X  ...........XoX.XX   .......",
"..oX.X.  .......XX.....XooX......X  ...........XXX.XX.  ........",
"..X.X.  ........o.....XoooXXoXXoX. ..........XXoX..Xo  .........",
".XXXX. .........X.XXXoX  . .  .X. .........XooXX  XX. ..........",
"Xo.X.  ........XoXXXXX........XX ........XoooX.  .oX ...........",
"X..X  .........oXXX. ......XXXX ....XXXXXXXXX.. ..X. ..........X",
"..XX ..........XX. .......XXX ....XooXX....oX. ...X ..........XX",
"XXX ..........XX..........X .....ooo..    .o. ...XX ..........XX",
"..o .........XX .........X ....ooX.   .....X  ..XX ..........XoX",
".oX .........X..........Xo....oo   .......o. ...X. .........XXoX",
"..X ........XX ........XX...oo.  .........X. ...X ........XoX.X.",
"..X .......XX. .......oX ..oo  ..........Xo ...XX...XooooXX. .X.",
"..o ......XX........XXX ..o  ............X. ..XXXXo .Xoo.. ...o.",
"..o.....XXXXXXXoXoXXoo...o  ............Xo..XXXo  . .oX.  ....X.",
".oo.XooXXX..   .XXXooX.oo. ...........XooXXXX.  ...oX..  ....Xo.",
"XoXooo...    ...XoooXXXoo ..........XoXooXo   ...XX..   .....XXX",
"ooooXX.   ......XoX .  o  .......XoX..ooX  ....XXX.   .......XXo",
"ooXX   ........XXX    .X ........X. ..X  ...XXXX.  .........Xooo",
"oX.   .........Xo  ....X ......XX. ...o .XXXXX   ..........oXX.o",
".  ...........XX  .....X .....XX  ...X.XoX.    .........XoXo..oX",
" ............XX  .....X. ....XX ....XoXX.    ........XXooo....o ",
"..........XXXX  .....XXXXXoXXo .....X..   .XXX...XXXXoXX.....X. ",
"Xo......XXX. ...XX.            .....XXXXXXX. X...oX.     .......",
"X XXXXX..   ...X.   .......... ...oXXX     ..X..XX.   ........XX",
"         .....X.  ...........XX  XXX  ......oX.Xo  .........Xoo.",
" ............X.  ...........X   .X.  ......XXooX  ....XXXXXooo. ",
".............X  ..........Xo ...Xo  .......XoooXoXoXoXXoXo  XX  ",
"............X. .......XXXoX  ..XX. .......XoX.            ..X. .",
"..........Xoo......XXXoXX.  .Xo X .......XX.   .............X  .",
".........oX  XoXoXXoXXXXXXXoXX   ......XX.   ...............X ..",
".....XXXXXX .ooXX.     ..XX   .......Xo.  .................Xo ..",
"XXXXX.    ..ooX.  .....XX.  ......XoXXX. .................XX....",
"XX.   .....XoX  .....XX.   .....XXX  .o ..................o....X",
".   ......oXX  .....XX.. .......X   .XX.................XXX..oXX",
" ........XXX......ooX.  ........XX .oo ...............XXoooXX.. ",
"........XX  XoX.oXoX.  ........XX..XXXXXXXXXXX....XXXXXooXX.   .",
".......XX  .X..X. .X.  .......oX             XXXXXXXoXXXX.  ....",
".......X  ..oX.  ..XX ......XX   ........  .  .XXXX  .o.. ......",
"......XX...XoX  ...o. .....XX  ..............XXoX  ..o.  .......",
".....XoXoXoXX  ....X. ...XXo  .............XXXXX ...XX .........",
"..oXoooX..XX  .....X.XooooX  ..............XoX. ...XX...........",
"oXXXo..  .XX ....XXoXXXXooX .............XoXX. ....X.XXXXXXXoXXX",
"  .X.  ...XX ..XXX    . oo. ............ooX.  .....X...  .X.    ",
"..X.  ....X..XX.  ......oX. ..........ooXX.  .....X..  ..X.  ...",
"XX  .....XXXXX  ........oX ........XoXX.X.  .....X.  ....X  ...X",
". .......XXX.  .........XX .......XoX  XX. .......  .....X .XXXX",
" ........XX.  .........XX. XXXXXX    ..X. .....X. ......XXXXo.  ",
"........XX.  ..........oo.       .....X.  ....o. ......XXoX..  .",
"........Xo  ...........XX. ..........X.  ....o.  .....XXXX.  ...",
".......XX. ............XX. ........XX. ......X. .....XXo..  ....",
".......oX  ............oX .....XXXX.  ......XX......XXoX. ......",
"......XX  .............X..X.XXXXX.  .........o....XoooX.  ......",
".....ooX ..............X.XXXX. ..  .........oooXXoXXoXo. .......",
"....ooo ..............XXooo. ... .........oooXXXX  ..XX ........"
};
