/* XPM */
static char *_15f147422294cdf8fb8b76d8ef6a674m1gQv7tK6kDiaAvN[] = {
/* columns rows colors chars-per-pixel */
"64 64 4 1 ",
"  c #A6A3DA",
". c #A8B1E2",
"X c #B1C6EE",
"o c #C1D8F5",
/* pixels */
"X.... ..X.X..    XXXXXXXXXXXoo...  XXXo..... ..Xo....X....  X...",
"      XXXoo. .X. ...oooooooo.  .XXXooo.XX.X..ooX  ..XX  ..X.... ",
" . .XXXoo.  .X.  ..X  ......  .Xooo... ..       ...Xo...... X ..",
".XX.ooo.  ..X.  .X...  ... XX....XX.X..........XXXXo..X. ......X",
"   ..  . ..X   .XX.....X. X...X....XooooXXXXXXXXXoo..... X..... ",
"........XXX  ..XX..      X.  X..X..   ..ooooooooX..  .X....XX...",
"oXXXXXXXoo. ..Xo.X   X.X.. .XX..X ..........    ...XX  .... .Xoo",
" Xoooooo.....Xo........ ..XXX..XX.XXX............Xo.. ..XX....  ",
"...........XXo........ XXXX...XXo ...oooXXXXXXXXoo..  ....o.....",
"XXXXXXXXXXooo....XX.XX.XXX..XXXo..X. ....ooooooo... XX.....ooXXX",
"oooooooooo..... ....XX....XXXXo..XX..    ....... . XX...XX...ooo",
"............ X. XX.     XXXXoo..X...XX..X  XX..  ..X..XXX... ...",
".. X..XX ..... .......XXXXoo......XXo...     ...XX...XXo...X... ",
"X......XX.X..  ....XXXXooo..  XXoooX.   .   XX X. ..XXo.... .X..",
"... X...... .X.X.XXooooXX.   ...XX....  .X .   ....XXo...X...  .",
"X.X... .  X....XXXX. .XX.  X. .X.oXXX.... . ....XXXoo..XXX.XXX..",
" ..  .Xoo...XXXXXX. .XX.  XX.XX.XoooXXXXXXXXXXXXXoo...XXXo.    .",
"..XXXoo...XXXXoXX.  XXX  XX.....Xo..oooXXXXXXXXooX..XXXXo.......",
"Xoooo..XXXXXXoX.  XXXXX XXXo...Xo......oooooooo...XXXooo.XXXXXXX",
"o.......XXoooX  XXXXX  XXXo..XXo......     ....XXoooo.....oooooo",
"....XXXooo...XX...X.  XXXo.XXoo.  .X.X..XXXXooooo...............",
"XXXoooX......      XXXXoo    ...     .............XX...oX...XX.X",
"ooo.....XX.  ..XXXXXXoo...         ..Xo.....X.X.X......XX..Xoooo",
"......X ..XXXXooooooo...X... ..X  XXoo...Xo...X.. ...XXXX.......",
" X  X ........XX .XXX..X....XXX.oooo...XXo..... X.XXXXX.XXXX    ",
" .....XXoo.X  . XXXXXXoooXXXXo.X....XXXoo..XXXXXXXXXoX.Xoooo.XX.",
"...XXooo..XXo..XXXooooXXXXXXoXX.XXXXXoo.... ....XXXoX...X.......",
"ooooo.. XXoo.XooooXXXXXXXoooX...ooooo....XXXXXXXoooX....XX..XXXX",
"..   .XXoo   ....XXoooooXXX.X.XX.. .. .XooooooooXXXXXX.....ooooo",
" XXXoooo   .XXXoooo ..XXX. XXXXo.  .. ....XXXXXXXXXXooo.....    ",
"oooo.....XXoooo.   .XXX   XXXoo..  .....XXXXXXXXXooo.......XXXXo",
"......XX..Xo... .XXXXX Xoooooo..  ...XXXX.Xoooooo.....XXXXXoooo.",
"....Xoo..Xo....X     XXXXXXX.    ...X.......XXXo. ..Xo...  Xo.X.",
".XXoo...Xo. XX.X.XX...  ..X.   ....X   ...XXXXo.. .Xo...  Xo.XX.",
"ooo....oo.  X...X ....X..X. X...XX...XXXXXXooo... oo...XXoo..X.X",
"....Xoo..  ...... .XXX .XX X......XooooooooXXX..oo...XXoo...o...",
" oooo..X.  X  X .XX..  XX..X...   .  ..XXXXXXXXX..XXXoo...XoX...",
" .....XX  ....  .X ...XX. X..  .    .   ...XoX..XXXoo.  .Xo...  ",
"XX...Xo .X. XX.X. ...XX  XX..X ..XX  .....Xo..Xoooo.   XXo..  X ",
"....Xo ..X.........XX.  XXo..  . ..XXXX...o..XX.... XXXoo..X  XX",
"..Xoo...X.  XXXXXXXX...XXo....XX    ....oo...Xo.  .Xooo..X  ..o.",
"Xoo.  .Xo......  .....XXo  X ..  ..XoooX....Xo.    ...   o.X....",
"o..  .XXo.XXX.......XXoo.       XXoX   ...XXo.  ...... .....XXoo",
". . XXoo...XXooooooooo.     ...Xoo      XXoo..........XXoooooo..",
"..XXXo....  ... X   .......XXXXX   ...XXoo. ..X....          .  ",
"XXXXo...   X.  .X.  X...XX...   ...XXXoo... ..o ..X.X  ........X",
"oooo     XX...XX ..X...   .......XXXoo.. X...Xo.....  .XXXXXXXXX",
".. . .X......XX...X...  .XX.....Xooo..X  X..Xo .XX.......ooooooo",
".   .....XXXX ...o...  .X... .XXX....X .. .XXo XX...  .X........",
"....XXXXX   ...oo..XXXX....X .......XX.. .XXo..Xo..  .X...X....X",
"....  .   .XoooX... ....X X ......XX.....Xoo..XXo ....  ..X...X.",
"... ..XXoooo     XXXX.... ....XXXX...XXooo  XXXo ..X....XX....o.",
"..XXXX.....  ...   ....X...XXXoo.Xooooo.   .XXo...  .XX.   .Xo..",
".XoooXXXXX....   .o...X .Xooo........... .XXXo..  X.......XXo..X",
".    ....XXXXXXooo..XXo  .  ...X........XXXoo...XXX  ....Xoo..Xo",
"...    .. ..oooX.XXXXo...XXXoooXoooXXXXXooo..........XXooo...XX.",
"....XXooooooXXXXXXXoo.....     ....ooooo....XXXXXXXXooo.....XXo ",
". ........XXXXooooo.....      .X. .X....X.....oooooo.. ...XXoo..",
"XXXXX ..Xooooo......       ..XXoXXX.  .Xo.......     ..XXXXo....",
"Xoo.  ........   .........XXXXo.. ...XXo...XXXXXXXXXXXXXoooXXXXX",
"oX.  ....o  ........XXXXXXXXoo... .XXoo...X....  .ooooooXXXXXXXo",
"X...XX.oo   ..XXXXXXXXXXXooo...XXXooo...X....   X......XXXXooooX",
"..XXoooX  .......oooooooo.....Xooo.... Xo  .X X   XX XXXooo...X.",
"ooooXXX...  X..  ...      ..XXo..   ..Xo..X. ....X. .........XXX"
};
