/* XPM */
static char *_388b4a04644428b81b2aabda75ad287SSGweNeYa5JJKJfj[] = {
/* columns rows colors chars-per-pixel */
"64 64 4 1 ",
"  c #219EB9",
". c #2E81C0",
"X c #1AC5D0",
"o c #2AFFED",
/* pixels */
"...      X       X.  X.  oXX..    XX ...      ooXXXX.  ooXXX   .",
"             X.  X.  X.  oXX.  X XX ...   ooooXXX... ooXXX   ...",
"    X X     X.. X    X.  oX.  o. X ..   ooXXXX...   oXXX  ...   ",
" X   ...  XX.. oX.       o . o. X ..   oXX....  .  oXXX ...     ",
"....      ..   XX.  ..  oX. o.  X..   oXX..     . oXXX ..     X.",
".            oXX.. ...  oX. X.   ..  oXX..     .  oXX ..      ..",
"            oXXX.  ..   oX. X   ..  XXX..  X  .. oXX ..   X  .. ",
"          ooXXX.   .    oX  X   ..  oX..  X. ..  oXX .  X  ..   ",
"  ooooooooXXX..   ..    o   X  ...  oX.  ..  .. oXXX.  o ..     ",
"ooXXXXXXXXX...   ..    oX   X  ..  oX.  X   ..  oXXX.  X..     o",
"XXXXXXXXX...    .     oX  . X  ..  XX.      ..  oXX . o .     oX",
"XXX  .....        .  oXX  . X  ..  oX.  o.  ..  oXX . X..   ooXX",
"  ....          ..  oXX     X  ..  XX.  X.  ..   XX .  .   oXXXX",
"....     XXX   .  ooX    X XX ...  oX.  X.  ..   XX .  .  oXXX  ",
"..  XXXXX.  .. XXXX     X  XX ..   XX.  o.  ..   oX    . oXXX ..",
"  XX........         X    XX  ..   XX.  o.   ..  oX. X   oXX ...",
" X...             XX   .. XX ..     X.  X. X ..   X. X  oXXX... ",
"X..          XXXXX.   .  XX  ..        o.. X ..   X. o  oXX..   ",
".         XXX.......    oX  ..   X...  X.  o  .  oX. X  oX ..  X",
". XXX    ....       XXXXX  .   XX..   o.   X  .  X . o  oX .  X.",
" X..    XX     XoXXXX         XX..    X.  o   .  X.. o  XX.   X ",
"X.  XXXX..   oXXXXX          XX.   oX..  oX     oX.  X  oX.     ",
"..  ....  ooXXX .          oX ..ooX..   XXX .   X.. o    X..   X",
".        oXXXX..       oXoX ... X..    oXX .   oX.  X     X..  X",
".      ooXXX..     oooXX...   oX.    ooXX ..   XX.         X.   ",
"X.    oXXX..      oXXX..    oX  oooooXXX ..   XX.  X            ",
"X.   oXXX..      oXXX.    Xo ...XXXXXX  ..  XoX.  X .           ",
"..   oXX..  X    oXX.     ....         .  XXX.     .    ooX .  X",
".   oXX .  X. . oXX .   X        .....           ..  ooX  .    o",
".   oXX.. X..   oXX..  X.     oX....    XXX    ..  XXX  ..   ooX",
"  . oXX.  X..  oXXX.   .  X  o..X    XXX..  .... XXXX ...  ooXX.",
"    XX . X..  XXXX..     oX X.     XX... ....   XXX  ... ooXXX. ",
"..XXX ..... XoX  ..    X..  XXXX   ...    X    oXXX ..     oXX .",
" X  ....  oXXX ..     X... XXX .  ..   XX..    XXX ..     oX ...",
"  ooooooXXXXX...     XX.. oXX.. ..     ..     oXXX..     oX...  ",
"ooXXXXXXX....       X... XXXX. ..    X..    oXXXX..  .. oX..    ",
"XXXXXX....      XXX...   oXX. .  XX       oXXXX...  ..  X..    o",
"XXXX...       X.....     oXX..  XX.    XXXX ....   ..  X..    oX",
"XX...        X.       .  oX.    .     XX....      ..    .    oXX",
" ...        ..  ......  oX . .      XX..   .......        .  oXX",
"..     XX     .....    oXX.  . .   X..    ...        o    . oXX ",
".     XX. X  ...     oXXX..   X.  X.                X.      oX .",
"     oX. X.  .      oXXX..    .  oX.  X     XX  X   ..   . oXX .",
"    oX.. X.     oooXXXX..       oXX.  X oX               . oX . ",
"    X .  .    oX ......    . .  oX. X  XX.                 oX . ",
"   oX. .X.  ooX..        .. X. XX. X    . oooXoXoXXX       o .  ",
"   X..  .  oXX.            ..  oX. X   oooXXXXXXXXXXXX     X .  ",
"  o .   . oX..         XoXX    o. X   oXXX.........XXX  .  X.   ",
"  o     . X..   oooXoXoXX..   oX.X.  oXX...      .. XX  . X .   ",
"  o.      ..  ooXXX......    oXXX.  oXX...        ..XX  . o .   ",
"  o.      .  oXXX....        oXXX. oXX..  ....    ..XX    o .   ",
"  X. .    . oXXX..  X      oXXX . oXX..  .X X    ..XX ..  o..   ",
".X  .. X    oXX..         oXX  ..oXX..   .               oX.   .",
" X. .. X    oXX.       ooXX  ... oXX.  X.               oX .   .",
" X.  . X    oX .     oXX..... ..oXX..  .    X. X      ooX ..   .",
" X.  . o    oX.. X. oX ..       oXX.   .  XX.   XoooooXX...   ..",
"X.   . o    oX..o.. X ..        oX..  X   ..  .   XXXXX....   . ",
"X.  .  oX   oX.  . X ..         XX.            ..  ......    .. ",
"    .  oX.  oX. o. X .          XX.      X       .....      ..  ",
".  .. XXX    o. o. X .     ooXX.X . X                  ......  X",
".  .  oXX.   o. X.  .    oX...  X.  X    ......    X  .....   X.",
" ..   oXX    X.. .  .   o...    X.  .    ...               X.   ",
"..   oXXX     X.       o ..     X.    X       XXX ..       ..   ",
"    oXXXX.    X.      o .    oo X.          XXX  ...   X       ."
};
