/* XPM */
static char *_5d6fff933554a14f3df661876138c95nqOdZDbM6ipF7FUh[] = {
/* columns rows colors chars-per-pixel */
"64 64 5 1 ",
"  c #004F78",
". c #006187",
"X c #0D7DBE",
"o c #04A2E4",
"O c #00CCF1",
/* pixels */
".XX   ..X...X......Xo      . X.     XX.. X.   XXX.. X.X...Xoo...",
"XX.   ..X...o.....X.       .X      XX.X.. XX XXXXX  XXooXX..oooo",
" X.   .XXXX.XXX.XX.        o.   Xoo   X... XXX.  X.X...oo...oOo ",
" .XX.XX .XXX.XXXX...XoXX..X.    oo     X..   X.. XX...X.X...X   ",
".. .XX  X.......oooX....Xoo.   .Oo    ..X.   o..X...XXX .XoXXXX.",
"X.      X......ooXoooXXX..oo   ..o   ...o.   OoXXXXoX.     ....X",
"X...   XX......Xo...       o    .X.  ....o  .o....Xoo.  ... ....",
"X..    XXXXXX.o.....      .X..  ..XX.....o...X.....Oo. ....   ..",
".X      ...XXX    ....    .X..  XXXXXXoo.ooXXX...X.  X....    ..",
".X.     .XoX..     ...... .X.  ....X..oXXXXX.X..X..  .X..     ..",
".X......XoX..      ...... .X    ....oXo     o..X....   X.   ....",
"..XoXXXXX.oo..    .       XX    ....Xo      XXX   ...  X.  .....",
"  .X.......Xo....        .X.XX .oooo...   ..XX.    .. .X..   ...",
"  .Xo....XXooO...       .o...XX...ooXoX......X   .... .o...   . ",
"  .ooXXoooooooooXX......oXXXXXX...X.   X.....XX  . ...oX..      ",
" .XoXooX....o..XXoXXXXXXX......X.o.    XX..  ..X....XoX...      ",
".oX..  X.....o  X.XoX....o.  ...X..     oXXXXX  XXXooo..        ",
"XX...   X....o  XX..o....X.     X..    Xo    XXX.    oX.   .....",
".   ...  X...o  .X...o..oo.     X...ooO       XXo    .X.    ...X",
"    ...  .XXX  ...X...Xoo..    X...Xo.O..       XXoo..X.    ..XX",
"    ..  .oX..    .X....oO.     X...oXXXo...   .....OO.XX.....XX.",
"oooX..  XX....    X.....X.    .XX..X   o.........XooOoXoXX...XoO",
"   X..  o..   ..  X.XXXXo.    ..XoXo    oXoOoooXX.......XXoXoooo",
"  .XXX..X.     .  .X....X.     .. Xo     .ooo........         Xo",
"..X..XX.X.    ....XX   ..X.     .  o.     X.o..   ...     .....X",
"XoX.XXoXo..   ....X.    .X.       XX..   ..Xo..      ...  .....X",
"..XX....Xo.   ..oX..    .oX.    XX..X.. ..  oo.          ...XXX.",
"...    ..oo  ..X......  .XoX  XX....o....... oo.......XooooXo...",
"....    ..oOoXoX        XoOooX......X.......  .XXXXXXX..Xo    ..",
"....     .oo..    .....oo......  ...X....       .X  XX.Xo      .",
" ....    .Xo.        .XX...     ...X..          .X    XX       .",
" ....    ..X.        .X..      ...X.X           .X.  XX.        ",
".oX...XXoXo.        .X..Xoo.  ...X..Xo..       .X..XX..        .",
"ooX...X.  XX       ..X.X  oo...XX...ooX.  .....X....o..       ..",
"o....X.    XXo     ..Xo.   oXXoXXXXooXo...XXXXXX.   o..       .o",
"XoXXXX.      XX..XXXX..    X.... .XXX.XX.Xo   XX.   XX.       .o",
".....X..      XXXX          o...    ....oX    XXX   oo..    ...o",
"    ..X....   X.X....      ..X..........X     X  X.XoO....  ..Xo",
"     ..X..  .X..X....     ...X....     .X.  .X...XXoooX..XX...XX",
"      .X..  .X...X..   ......X..       X.....X...oX  oXXoX.XXX.X",
"  ... .X.    X...X   ......  X         X.....X...X.. o..X..  ..X",
"...   .X     .X..o      ..   X. X ... X......o.XXX  ..XXXX.   XX",
"..  ..X      ..X.X      ..  XX...XXXXo..... ..oX     ..o.X.  X..",
"  ...XooXoXXX  oOo       .  XoXXXX.X.o       .o.     ..o.XXXX   ",
" ....XX..XX  XX   oXoXX     XX....o..o        o.     ..o..X.    ",
"...oX....X         ....Xo  oX   ..XoOo       XX.     .XX ..XXX .",
"XooOoo...XX.      ...    oO..   ..X.oX.      XX.ooooXXo. ..  XXX",
"....XooXX.ooXo.......    oo.    ..X.o.X     X.XXXooX..X.  .    X",
"    ...X.    oooXX..   XXo..    .XX.X XXXXXX.XXX..XX..X   .   X ",
"    ...X    .o..Xo....XXo.. ..  Xo...X. .....X....o...X  ....XX ",
"   ....X    .XX..XX.XXX.........o.... X .....X...X  ..   ...oX  ",
". .....o....  X....X  XXX........o....X     X....X  XX  ....o. .",
"      X...    oo..X     X. ......X  ..X     o   .XXX.X   ..ooo  ",
".    Xo.      X.XX.     X .   ...X ...o     X    .X..X    Xo.oX.",
".   X.X      XXXoX.     XX.     . XXXXoXoXX.X    .X...X   X...XX",
"..XX...X   XX   OXX......X.         .X     Xo   . X..XX   X....X",
"XXXX...XXXX.    X..X.....X....      X     .Xoo..  X.X..XX.X...XX",
"   o...XX.XX    X...X...XXXXXX  o  XX    ....XXX.  XX....XX..X..",
"   X...X..  X...X..  X.XX    XX.oXoX   .......X.Xo..X......XX.. ",
"....o.X...   X...X.   XoX     XX..Oo.      .oX..XO.XX.....oo....",
"....oooXX.   X...XX   oo.     XX..XooX      XX.X.Xo. XX..oO.. ..",
" ...oo..XX  .X.....X .X..     o..  Xo.X   .XX.ooO.X.  .XoOo.    ",
"   .o. ..XXXXoXXoXX.XX.....   oo..  X..ooXX....Xo.X.  .oo.o..   ",
" ..o   ..X..oo....XooX.  ...  X..   o.  XX..  ..X..X XX...XX..  "
};
